<svg xmlns:xlink="http://www.w3.org/1999/xlink" xmlns="http://www.w3.org/2000/svg" viewBox="0 0 81 26" width="125"  height="40" ><defs><symbol id="chip-logo-invert" viewBox="0 0 81 26" fill="#20292A"><path d="M81 19V0H0v26h70v-7" fill="#20292A"></path><path fill="#FFFFFF" d="M56.244 21c0 1.104-.896 2-2 2H51c-1.104 0-2-.896-2-2V4c0-.55.447-1 1-1h1.877c.553 0 1 .45 1 1v7.05l3.367 3.37V21zm10.43 0c0 1.104-.897 2-2 2h-3.45c-1.104 0-2-.896-2-2V5c0-1.104.896-2 2-2H76c1.104 0 2 .896 2 2v8.435c0 1.104-.896 2-2 2h-8.327c-.553 0-1 .447-1 1V21zm-3.577-10.443c0 .552.447 1 1 1h9.018c.553 0 1-.448 1-1v-2.68c0-.55-.447-1-1-1h-9.018c-.553 0-1 .45-1 1v2.68zM41 3c-.553 0-1 .448-1 1v5.47c0 1.103-.897 2-2 2h-7.124c-1.104 0-2-.897-2-2V4c0-.552-.448-1-1-1H26c-.553 0-1 .448-1 1v17c0 1.104.895 2 2 2h3.346c1.104 0 2-.896 2-2v-3.653c0-1.104.896-2 2-2H38c1.103 0 2 .896 2 2V22c0 .553.447 1 1 1h1.876c.553 0 1-.447 1-1V4c0-.552-.447-1-1-1H41zM21.572 21c0 1.104-.896 2-2 2H5c-1.104 0-2-.896-2-2V5c0-1.105.896-2 2-2h14.572c1.104 0 2 .895 2 2v3.73c0 .553-.448 1-1 1H18.55c-.473 0-.856-.382-.856-.854v-1c0-.552-.448-1-1-1H8.877c-1.104 0-2 .896-2 2v2.174l3.368 3.367v2.704c0 1.107.896 2 2 2h4.45c.55 0 1-.444 1-1v-.493c0-.553.447-1 1-1h1.877c.552 0 1 .447 1 1V21z"></path></symbol></defs><use xlink:href="#chip-logo-invert" fill="#EB443F"></use></svg>