<svg id="Layer_1" data-name="Layer 1" xmlns="http://www.w3.org/2000/svg" viewBox="0 0 864 190.8161">
  <g>
    <path id="fullLogo" d="M90,0s13.92,24.1084,18.842,32.7566a1.9309,1.9309,0,0,0,1.9845,1.0935c37.6408-.0209,114.6347-.0178,114.6347-.0178L170.6207,129.1s-18.775-32.57-25.174-43.6217a1.4745,1.4745,0,0,1-.0272-1.7443c1.05-1.717,3.0944-5.343,3.0944-5.343H135.1648s27.3841,47.5667,38.7326,67.2523a1.6631,1.6631,0,0,1,.1221,1.956c-8.1793,14.1181-24.9527,43.2164-24.9527,43.2164s-17.7823-30.54-26.18-45.1836a1.58,1.58,0,0,0-1.5843-.9545q-31.26.0383-62.5194-.0006a1.6843,1.6843,0,0,0-1.692,1.0022c-1.836,3.2655-3.74,6.4926-5.5864,9.7523a1.5148,1.5148,0,0,1-1.4988.9166C33.6894,156.3244,0,156.2635,0,156.2635Z"/>
    <polygon id="fullLogo-2" data-name="fullLogo" points="90.066 88.284 93.573 94.359 97.081 100.435 90.066 100.435 83.051 100.435 86.558 94.359 90.066 88.284" style="fill: #ea0029"/>
    <path id="fullLogo-3" data-name="fullLogo" d="M301.7865,120.3846H274.4532l-4.4939,12.9328H258.4939l23.2973-64.2059h12.6581l23.206,64.2059h-11.374Zm-3.4849-9.9062L288.12,81.494l-10.1814,28.9844Z"/>
    <path id="fullLogo-4" data-name="fullLogo" d="M365.6209,105.1583v28.1591h-9.9062v-27.15c0-6.9706-4.0351-10.64-10.2728-10.64-6.5118,0-11.6491,3.8523-11.6491,13.2079v24.5819h-9.9053V87.4561h9.9053v5.87c3.027-4.77,7.9806-7.063,14.2173-7.063C358.2828,86.2634,365.6209,93.2345,365.6209,105.1583Z"/>
    <path id="fullLogo-5" data-name="fullLogo" d="M422.4856,69.1115v64.2059h-9.9063v-6.6042c-3.4857,4.8613-8.8972,7.7964-16.0516,7.7964-12.4744,0-22.8385-10.5478-22.8385-24.1231,0-13.6666,10.3641-24.1231,22.8385-24.1231,7.1544,0,12.5659,2.9352,16.0516,7.705V69.1115Zm-9.9063,41.275c0-8.53-6.2367-14.6756-14.4924-14.6756s-14.4924,6.1453-14.4924,14.6756,6.2377,14.6757,14.4924,14.6757S412.5793,118.9168,412.5793,110.3865Z"/>
    <path id="fullLogo-6" data-name="fullLogo" d="M458.0691,86.63V97.3619c-6.5128-.4583-14.126,2.5682-14.126,12.8414v23.1141h-9.9053V87.4561h9.9053v7.7046C446.695,88.9235,452.29,86.63,458.0691,86.63Z"/>
    <path id="fullLogo-7" data-name="fullLogo" d="M460.7268,110.3865a24.2147,24.2147,0,1,1,24.214,24.1231A23.94,23.94,0,0,1,460.7268,110.3865Zm38.5237,0a14.31,14.31,0,1,0-14.31,14.4924A14.0863,14.0863,0,0,0,499.2505,110.3865Z"/>
    <path id="fullLogo-8" data-name="fullLogo" d="M516.7644,74.2478a6.3291,6.3291,0,1,1,6.329,6.3291A6.3413,6.3413,0,0,1,516.7644,74.2478Zm1.3764,13.2083h9.9053v45.8613h-9.9053Z"/>
    <path id="fullLogo-9" data-name="fullLogo" d="M585.7379,69.1115v64.2059h-9.9063v-6.6042c-3.4857,4.8613-8.8972,7.7964-16.0516,7.7964-12.4744,0-22.8385-10.5478-22.8385-24.1231,0-13.6666,10.3641-24.1231,22.8385-24.1231,7.1544,0,12.5659,2.9352,16.0516,7.705V69.1115Zm-9.9063,41.275c0-8.53-6.2367-14.6756-14.4924-14.6756s-14.4924,6.1453-14.4924,14.6756,6.2377,14.6757,14.4924,14.6757S575.8316,118.9168,575.8316,110.3865Z"/>
    <path id="fullLogo-10" data-name="fullLogo" d="M668.83,89.0153c0,11.2817-8.4384,19.812-19.9953,19.812H631.8655v24.49h-4.8612V69.1115h21.83C660.3916,69.1115,668.83,77.6417,668.83,89.0153Zm-4.8613,0c0-8.8972-6.329-15.3177-15.134-15.3177H631.8655v30.5436h16.9692C657.64,104.2412,663.9687,97.8207,663.9687,89.0153Z"/>
    <path id="fullLogo-11" data-name="fullLogo" d="M673.1365,110.3865a24.0778,24.0778,0,1,1,24.1236,23.94A23.7667,23.7667,0,0,1,673.1365,110.3865Zm43.4772,0a19.4,19.4,0,1,0-19.3536,19.537A19.2252,19.2252,0,0,0,716.6137,110.3865Z"/>
    <path id="fullLogo-12" data-name="fullLogo" d="M732.2933,66.36H736.88v66.9578h-4.5862Z"/>
    <path id="fullLogo-13" data-name="fullLogo" d="M749.6272,72.6886a3.6691,3.6691,0,1,1,3.6695,3.6691A3.6622,3.6622,0,0,1,749.6272,72.6886Zm1.3764,14.7675H755.59v45.8613h-4.5862Z"/>
    <path id="fullLogo-14" data-name="fullLogo" d="M766.5937,110.3865c0-13.5748,10.2736-23.9394,24.1235-23.9394,8.9886,0,16.6932,4.5862,19.9953,11.7406l-3.76,2.2012c-2.66-5.7784-8.8972-9.5393-16.2353-9.5393a19.5372,19.5372,0,0,0,0,39.0739,18.3219,18.3219,0,0,0,16.51-9.5389l3.8523,2.2931c-3.6695,7.0625-11.3741,11.6487-20.3627,11.6487C776.8673,134.3264,766.5937,123.9618,766.5937,110.3865Z"/>
    <path id="fullLogo-15" data-name="fullLogo" d="M864,110.57c0,.7339-.0914,1.4674-.0914,2.2013H822.3579c1.1,10.3645,8.9887,17.152,19.4451,17.152,7.5218,0,13.2083-3.4854,15.8688-8.3466l4.0351,2.3849c-3.76,6.2372-10.9143,10.3646-19.9953,10.3646-14.125,0-24.1235-10.09-24.1235-23.94,0-13.4829,9.7234-23.9394,23.757-23.9394C855.2864,86.4471,864,98.004,864,110.57Zm-41.6421-2.2931H859.231c-1.009-11.19-8.8972-17.4275-17.8859-17.4275C830.8887,90.85,823.2755,98.0958,822.3579,108.2771Z"/>
  </g>
</svg>
