<svg id="Logo_-_Dark_Reading" data-name="Logo - Dark Reading" xmlns="http://www.w3.org/2000/svg" width="569.2" height="63.5" viewBox="0 0 569.2 63.5">
  <path id="Path_2944" data-name="Path 2944" d="M233.6,84.7l-20.4-26-5.9,6.4V84.7H195V22.8h12.2V49.5l24.6-26.7h15L221.4,50l27.1,34.8H233.6Z" transform="translate(-22.2 -22.6)" fill="#9f1d20"/>
  <path id="Path_2945" data-name="Path 2945" d="M469.2,23.4h4.9V85.3h-4.9Z" transform="translate(-22.2 -22.6)" fill="#231f20"/>
  <path id="Path_2946" data-name="Path 2946" d="M75.5,44.4a21.2,21.2,0,0,0-3-11.3,19.976,19.976,0,0,0-8.4-7.6,27.268,27.268,0,0,0-12.4-2.7H22.2V84.7L52,84.6c7.6,0,13.5-2,17.5-5.9s6-9.8,6-17.4Zm-13.2.5V60.8q0,6-2.7,9c-1.8,2-4.4,3-7.9,3H38c-1.7,0-2.6-.8-2.6-2.8V34.6h16a11.162,11.162,0,0,1,8,2.8A10.174,10.174,0,0,1,62.3,44.9Z" transform="translate(-22.2 -22.6)" fill="#9f1d20"/>
  <path id="Path_2947" data-name="Path 2947" d="M104.1,22.9H98.3L74.1,84.7H87.9l5.4-14.1h21.8l5.3,14.1h13.8L112.3,28.5A8.116,8.116,0,0,0,104.1,22.9Zm7.3,36.4H97l7.3-19.5Z" transform="translate(-22.2 -22.6)" fill="#9f1d20"/>
  <path id="Path_2948" data-name="Path 2948" d="M310.2,84.1a4.8,4.8,0,0,1-1.2-3.5V23.4h39.9v4.2h-35V51.5h28v4.2h-28V81h35v4.3H313.5A4.307,4.307,0,0,1,310.2,84.1Z" transform="translate(-22.2 -22.6)" fill="#231f20"/>
  <path id="Path_2949" data-name="Path 2949" d="M393.5,67.3H365.6l-6.8,18h-5l23.6-61.9h2.3c1.4,0,2.5.9,3.2,2.7l22.4,59.2h-5Zm-26.4-4.2H392L379.6,29.9h-.1Z" transform="translate(-22.2 -22.6)" fill="#231f20"/>
  <path id="Path_2950" data-name="Path 2950" d="M411,85.2V23.4h24.5a23.7,23.7,0,0,1,11.2,2.5,18.766,18.766,0,0,1,7.5,7,19.9,19.9,0,0,1,2.7,10.4V63.7q0,10.65-5.4,16.2c-3.6,3.7-8.8,5.5-15.7,5.5Zm24.8-4.3c5.4,0,9.4-1.5,12.2-4.4,2.7-2.9,4.1-7.2,4.1-12.9V43.2c0-4.7-1.5-8.4-4.6-11.2s-7.1-4.2-12.1-4.2H415.8V78.4a2.142,2.142,0,0,0,2.3,2.5Z" transform="translate(-22.2 -22.6)" fill="#231f20"/>
  <path id="Path_2951" data-name="Path 2951" d="M487.4,23.4h4.8l35.7,54.2V23.4h4.7V85.3h-4.7L492.1,31.2V85.3h-4.7V23.4Z" transform="translate(-22.2 -22.6)" fill="#231f20"/>
  <path id="Path_2952" data-name="Path 2952" d="M552,83.2a18.243,18.243,0,0,1-6.8-7.7A26.271,26.271,0,0,1,542.8,64V44.5A24.67,24.67,0,0,1,545.3,33a18.679,18.679,0,0,1,7-7.7,19.9,19.9,0,0,1,10.4-2.7h9.4a20.269,20.269,0,0,1,10,2.4,15.8,15.8,0,0,1,6.6,6.7,19.844,19.844,0,0,1,2.3,9.9h-4.7A14.587,14.587,0,0,0,582.4,31c-2.6-2.7-6-4-10.4-4h-9.4a13.206,13.206,0,0,0-10.8,4.9c-2.7,3.2-4.1,7.5-4.1,12.7V64c0,5.3,1.3,9.6,4,12.8a13.156,13.156,0,0,0,10.6,4.8h9.6a13.75,13.75,0,0,0,10.7-4.5,16.852,16.852,0,0,0,4.1-11.7V58.3h-13V54h17.7V65.4A23.229,23.229,0,0,1,589,76.2a17.963,17.963,0,0,1-6.9,7.3,20.2,20.2,0,0,1-10.3,2.6h-9.6A20.993,20.993,0,0,1,552,83.2Z" transform="translate(-22.2 -22.6)" fill="#231f20"/>
  <path id="Path_2953" data-name="Path 2953" d="M180.2,60.7a15.034,15.034,0,0,0,8.2-11.9v-.2c0-.3.1-.5.1-.8,0-.4.1-.9.1-1.4v-.2h0V38.9a14.762,14.762,0,0,0-5-11.6c-3.3-2.9-7.7-4.4-13.1-4.4H137.7V84.7h13.2V63h17.8l8.4,21.7h13.7Zm-12-9.2H153.9c-3,0-3-1.9-3-3.2V34.6h19.4a4.658,4.658,0,0,1,5.1,4.9v5.6a5.894,5.894,0,0,1-1.9,4.6A7.4,7.4,0,0,1,168.2,51.5Z" transform="translate(-22.2 -22.6)" fill="#9f1d20"/>
  <path id="Path_2954" data-name="Path 2954" d="M288.7,56.9c5.9-1.4,10.1-6.1,10.6-12.8,0-.4.1-.8.1-1.2v-.2h0V36a12.219,12.219,0,0,0-3.9-9.5c-2.6-2.4-6-3.6-10.4-3.6H255.9V84.8h4.9V57.3H284l12.4,27.4h5ZM282.9,53H263.8c-2.8,0-3-1.6-3-2.9v-23H285a10.078,10.078,0,0,1,6.9,2.3,8.069,8.069,0,0,1,2.6,6.2v7.1a9.459,9.459,0,0,1-3.2,7.4A12.422,12.422,0,0,1,282.9,53Z" transform="translate(-22.2 -22.6)" fill="#231f20"/>
</svg>
