<svg data-name="Livello 1" xmlns="http://www.w3.org/2000/svg" viewBox="0 0 354 96"><path d="M31.49 48A37.26 37.26 0 0 1 20.3 74.6a27.25 27.25 0 0 0 21.05-24.24C41.64 64 44.5 74.6 48 74.6s6.34-10.76 6.67-24.24a27.44 27.44 0 0 0 21 24.24 37.23 37.23 0 0 1 0-53.2 27.41 27.41 0 0 0-21 24.26C54.32 32.33 51.5 21.4 48 21.4s-6.36 10.67-6.64 24.28A27.2 27.2 0 0 0 20.27 21.4 37.24 37.24 0 0 1 31.49 48zM0 48a48 48 0 1 1 48 48A48 48 0 0 1 0 48z" fill-rule="evenodd" fill="gray"/><path d="M119.77 4.8h16.45v3.54a39.61 39.61 0 0 0-9-.82h-2.81v10.32h11.4v2.89h-11.4V34h-4.62zm29.8 6.3c5.83 0 10.8 4 10.8 11.79 0 8.42-6.13 11.75-11.79 11.75-5.87 0-10.75-4-10.75-11.74-.01-8.52 6.08-11.8 11.74-11.8zm.25 20.9c3.63 0 5.83-2.94 5.83-8 0-6.43-3.33-10.41-7.38-10.41-3.67 0-5.83 2.94-5.83 8.2 0 6.15 3.32 10.21 7.38 10.21zm18.92-17.32s.82-.69 2-1.64a8.55 8.55 0 0 1 5.35-2c3.89 0 6.65 1.77 7.34 5.18a20.59 20.59 0 0 1 .26 3.93V34h-4.4V23.1c0-5.7-.17-8.85-5.23-8.85a5.15 5.15 0 0 0-5.31 5.18V34h-4.4V11.58h4.4zm30.7-3.1a15 15 0 0 1 5.31 1V2.25h4.4V34h-4.4v-3s-1.73 1.47-2.46 2a7.84 7.84 0 0 1-5.05 1.64c-6.13 0-9.54-4.92-9.54-11 0-9.09 6.17-12.06 11.74-12.06zm-.56 19.91c2.72 0 5.87-1.94 5.87-6.3v-8.26a6.53 6.53 0 0 0-5.83-3.07c-4.49 0-6.65 3.89-6.65 8.51 0 5.1 2.16 9.11 6.61 9.11zm25-10.89l4.4-.26V20c0-3.84-1-6.43-5.05-6.43a20.82 20.82 0 0 0-7.34 1.86l-.22-2.94a22.49 22.49 0 0 1 8.16-1.3c3.11 0 6.13 1 7.21 2.2 1.47 1.77 1.6 4 1.6 7.21V34h-4.36v-2.86s-1.47 1.25-2.2 1.81a7.84 7.84 0 0 1-5.08 1.64c-4.15 0-7.43-2-7.43-6.65.03-6.09 5.95-7.08 10.31-7.34zm-1.21 10.93c2.38 0 5.57-1.68 5.57-5.05v-3.42a21.91 21.91 0 0 0-4.32-.39c-3.5 0-5.74 1.86-5.74 4.45a4.11 4.11 0 0 0 4.49 4.4zm18.33.04h5.4a40.49 40.49 0 0 0 8.51-.73l.26 3.2h-19.54v-2.26L250.4 14H246a48.66 48.66 0 0 0-8.51.73l-.3-3.2H255v2.16zm23-27.29a2.45 2.45 0 0 1-2.68 2.59c-1.12 0-2.46-.43-2.46-2.59a2.51 2.51 0 0 1 2.68-2.63c1.16-.01 2.46.47 2.46 2.63zM259.25 34V11.58h4.4V34zm20.85-22.9c5.83 0 10.8 4 10.8 11.79 0 8.42-6.13 11.75-11.79 11.75-5.87 0-10.75-4-10.75-11.74 0-8.52 6.09-11.8 11.74-11.8zm.26 20.9c3.63 0 5.83-2.94 5.83-8 0-6.43-3.33-10.41-7.38-10.41-3.67 0-5.83 2.94-5.83 8.2C273 27.94 276.3 32 280.36 32zm18.92-17.32s.82-.69 2-1.64a8.55 8.55 0 0 1 5.35-2c3.89 0 6.65 1.77 7.34 5.18a20.6 20.6 0 0 1 .26 3.93V34h-4.4V23.1c0-5.7-.17-8.85-5.23-8.85a5.15 5.15 0 0 0-5.31 5.18V34h-4.4V11.58h4.4zm29.32-3.54a9.52 9.52 0 0 1 6.35 2.16c2.37 2.16 2.42 6.87 2.42 9.76H322.6c.26 6.39 4.15 8.42 8.2 8.42a12.79 12.79 0 0 0 6.2-1.42v2.2a14.19 14.19 0 0 1-2.55 1.3 17.51 17.51 0 0 1-6 1.08c-6.22 0-10.45-3.93-10.45-12 .06-8.99 5.68-11.5 10.6-11.5zm4.27 9.54c-.09-4.62-1.64-7.47-5.35-7.47-3.32 0-4.88 3.32-5 7.47zM127.91 48.35a22.71 22.71 0 0 1 5.9.8l-.22 2.46a11.64 11.64 0 0 0-5.85-1.77c-3.79 0-4.81 3.19-4.81 6.43 0 5 2.59 7.82 6.38 7.82a11 11 0 0 0 4.46-1v1.39a9.62 9.62 0 0 1-5.53 1.39c-4.76 0-8.17-2.79-8.17-9.21s4.28-8.31 7.84-8.31zm13.93 9.47l2.54-.15v-.22c0-2.22-.55-3.71-2.91-3.71a12 12 0 0 0-4.23 1.07l-.12-1.69a13 13 0 0 1 4.71-.75c1.79 0 3.54.55 4.16 1.27.85 1 .92 2.29.92 4.16v7.77h-2.52v-1.68s-.85.72-1.27 1a4.53 4.53 0 0 1-2.91.95c-2.39 0-4.28-1.17-4.28-3.84-.02-3.46 3.39-4 5.91-4.18zm-.7 6.3a3.1 3.1 0 0 0 3.21-2.91v-2a12.67 12.67 0 0 0-2.49-.22c-2 0-3.31 1.07-3.31 2.57a2.37 2.37 0 0 0 2.59 2.56zm12.7 1.79a12.12 12.12 0 0 1-4.26-.57c.07-.72.15-1.45.2-2.17a8.62 8.62 0 0 0 4.09 1.25c1.82 0 2.74-.77 2.74-2.09 0-1.49-1.32-1.92-2.84-2.42-1.87-.62-4.11-1.32-4.11-3.81s2.22-3.74 4.91-3.74a9 9 0 0 1 3.74.57l-.17 1.94a7.35 7.35 0 0 0-3.91-1.15c-1.44 0-2.24.57-2.24 1.77s1 1.79 2.76 2.29c1.89.55 4.36 1.3 4.36 4-.01 3.14-2.83 4.13-5.27 4.13zm11.31 0a12.13 12.13 0 0 1-4.26-.57c.08-.72.15-1.45.2-2.17a8.62 8.62 0 0 0 4.08 1.25c1.82 0 2.74-.77 2.74-2.09 0-1.49-1.32-1.92-2.84-2.42-1.87-.62-4.11-1.32-4.11-3.81s2.22-3.74 4.91-3.74a9 9 0 0 1 3.74.57l-.17 1.94a7.35 7.35 0 0 0-3.91-1.15c-1.44 0-2.24.57-2.24 1.77s1 1.79 2.76 2.29 4.36 1.3 4.36 4c0 3.14-2.82 4.13-5.26 4.13zm13.31-8.09l2.54-.15v-.22c0-2.22-.55-3.71-2.91-3.71a12 12 0 0 0-4.23 1.07l-.12-1.69a13 13 0 0 1 4.71-.75c1.79 0 3.54.55 4.16 1.27.85 1 .92 2.29.92 4.16v7.77H181v-1.68s-.85.72-1.27 1a4.53 4.53 0 0 1-2.91.95c-2.39 0-4.28-1.17-4.28-3.84-.01-3.46 3.4-4 5.92-4.18zm-.7 6.3A3.1 3.1 0 0 0 181 61.2v-2a12.67 12.67 0 0 0-2.49-.22c-2 0-3.31 1.07-3.31 2.57a2.37 2.37 0 0 0 2.56 2.57zM201 52.61a8.63 8.63 0 0 1 3.06.57v-6h2.54v18.38h-2.54v-1.77s-1 .85-1.42 1.17a4.53 4.53 0 0 1-2.91.95c-3.54 0-5.5-2.84-5.5-6.33.02-5.25 3.58-6.97 6.77-6.97zm-.32 11.48a3.39 3.39 0 0 0 3.39-3.64V55.7a3.77 3.77 0 0 0-3.36-1.77c-2.59 0-3.84 2.24-3.84 4.91.02 2.94 1.27 5.25 3.83 5.25zm12.88-15.69a1.42 1.42 0 0 1-1.56 1.5c-.65 0-1.42-.25-1.42-1.49a1.45 1.45 0 0 1 1.54-1.52c.69-.01 1.44.27 1.44 1.51zm-2.74 17.16v-13h2.54v13zm12.25-16.73a35.71 35.71 0 0 1 4.33-.27c4.11 0 7.32.77 7.32 4.86 0 3.49-3.46 4.53-4.88 5l6.45 7.17H233l-5.75-7.07v-1.38h1a3.35 3.35 0 0 0 3.75-3.63c0-3-2.27-3.49-4.63-3.49a11.17 11.17 0 0 0-1.64.12v15.42h-2.66zm18.43-.43a1.42 1.42 0 0 1-1.5 1.5c-.65 0-1.42-.25-1.42-1.49a1.45 1.45 0 0 1 1.54-1.52c.63-.01 1.38.27 1.38 1.51zm-2.74 17.16v-13h2.54v13zm10.06.35a12.13 12.13 0 0 1-4.26-.57c.07-.72.15-1.45.2-2.17a8.62 8.62 0 0 0 4.08 1.25c1.82 0 2.74-.77 2.74-2.09 0-1.49-1.32-1.92-2.84-2.42-1.87-.62-4.11-1.32-4.11-3.81s2.22-3.74 4.91-3.74a9 9 0 0 1 3.74.57l-.17 1.94a7.35 7.35 0 0 0-3.91-1.15c-1.44 0-2.24.57-2.24 1.77s1 1.79 2.76 2.29 4.36 1.3 4.36 4c0 3.14-2.82 4.13-5.26 4.13zm10.54-11.51s.5-.37 1.15-.9a5 5 0 0 1 3.11-1.15c3.49 0 5.35 2.69 5.35 6.3a6.89 6.89 0 0 1-7 7.25 6.57 6.57 0 0 1-2.59-.42v5h-2.54V52.61h2.54zm0 8.19a3.29 3.29 0 0 0 3.16 1.92c2.71 0 3.74-2.91 3.74-5.4 0-3-1.22-5.06-3.81-5.06a3.11 3.11 0 0 0-3.09 2.95zm17.91-4.77l2.54-.15v-.22c0-2.22-.55-3.71-2.91-3.71a12 12 0 0 0-4.23 1.07l-.12-1.69a13 13 0 0 1 4.71-.75c1.79 0 3.54.55 4.16 1.27.85 1 .92 2.29.92 4.16v7.77h-2.52v-1.68s-.85.72-1.27 1a4.52 4.52 0 0 1-2.91.95c-2.39 0-4.28-1.17-4.28-3.84-.02-3.46 3.39-4 5.91-4.18zm-.7 6.3a3.1 3.1 0 0 0 3.21-2.91v-2a12.66 12.66 0 0 0-2.48-.21c-2 0-3.31 1.07-3.31 2.57a2.37 2.37 0 0 0 2.58 2.55zm11.81 1.44h-2.54v-13h2.54v1.72l1.15-.92a4.68 4.68 0 0 1 2.64-1.1 3.23 3.23 0 0 1 1.27.25l-.23 2.49a3.41 3.41 0 0 0-1.72-.5c-1.39 0-3.11.57-3.11 2.66zm23.62-6.3c0-3.29-.1-5.11-2.71-5.11-1.32 0-3.16.62-3.16 2.81v8.59h-2.54v-6.3c0-3.29-.1-5.11-2.91-5.11a2.92 2.92 0 0 0-3 3v8.42h-2.54v-13h2.54v1.84l1.12-.95a4.73 4.73 0 0 1 3-1.15c1.89 0 3.31.75 3.91 2.22l1.19-1a5.13 5.13 0 0 1 3.24-1.22c2.24 0 3.83 1 4.23 3a11.88 11.88 0 0 1 .15 2.27v8H312zm9.31-10.86a1.42 1.42 0 0 1-1.54 1.49c-.65 0-1.42-.25-1.42-1.49a1.45 1.45 0 0 1 1.54-1.52c.68 0 1.42.28 1.42 1.52zm-2.74 17.16v-13h2.54v13zm12.66-13.22c3.36 0 6.23 2.32 6.23 6.8 0 4.86-3.54 6.77-6.8 6.77s-6.2-2.32-6.2-6.77c-.01-4.91 3.54-6.8 6.77-6.8zm.15 12c2.09 0 3.36-1.69 3.36-4.61 0-3.71-1.92-6-4.26-6-2.12 0-3.36 1.69-3.36 4.73 0 3.59 1.88 5.91 4.26 5.91zM126.65 78.25a8.63 8.63 0 0 1 3.06.57v-6h2.54V91.2h-2.54v-1.77s-1 .85-1.42 1.17a4.52 4.52 0 0 1-2.91.95c-3.54 0-5.5-2.84-5.5-6.33 0-5.22 3.56-6.97 6.77-6.97zm-.32 11.48a3.39 3.39 0 0 0 3.39-3.64v-4.75a3.77 3.77 0 0 0-3.36-1.77c-2.59 0-3.84 2.24-3.84 4.91 0 2.93 1.24 5.25 3.81 5.25zM139.18 74a1.42 1.42 0 0 1-1.54 1.49c-.65 0-1.42-.25-1.42-1.49a1.45 1.45 0 0 1 1.54-1.52c.68.04 1.42.31 1.42 1.52zm-2.74 17.2v-13H139v13zm13.8-16.74s2.57-.27 4.36-.27c3.54 0 7.42.4 7.42 4.78 0 3.64-2.69 5.11-5.13 5.53a15.15 15.15 0 0 1-2.37.2h-1.62v6.5h-2.66zm4.76 8.72c2.57 0 4.33-1.07 4.33-3.86 0-3.16-2.29-3.66-4.73-3.66a11.77 11.77 0 0 0-1.67.12v7.15a6.56 6.56 0 0 0 2.07.25zm14.25.27l2.54-.15v-.22c0-2.22-.55-3.71-2.91-3.71a12 12 0 0 0-4.23 1.07l-.12-1.69a13 13 0 0 1 4.71-.75c1.79 0 3.54.55 4.16 1.27.85 1 .92 2.29.92 4.16v7.77h-2.52v-1.67s-.85.72-1.27 1a4.52 4.52 0 0 1-2.91.95c-2.39 0-4.28-1.17-4.28-3.84-.02-3.46 3.39-4.04 5.91-4.19zm-.7 6.3a3.1 3.1 0 0 0 3.21-2.91v-2a12.66 12.66 0 0 0-2.49-.22c-2 0-3.31 1.07-3.31 2.56a2.37 2.37 0 0 0 2.59 2.57zm15.35-11.5a8.63 8.63 0 0 1 3.06.57v-6h2.54V91.2H187v-1.77s-1 .85-1.42 1.17a4.53 4.53 0 0 1-2.91.95c-3.54 0-5.5-2.84-5.5-6.33-.05-5.22 3.51-6.97 6.73-6.97zm-.32 11.48a3.39 3.39 0 0 0 3.42-3.64v-4.75a3.77 3.77 0 0 0-3.36-1.77c-2.59 0-3.83 2.24-3.83 4.91-.05 2.93 1.19 5.25 3.76 5.25zM199.22 78c3.36 0 6.23 2.32 6.23 6.8 0 4.86-3.54 6.77-6.8 6.77s-6.2-2.32-6.2-6.77c-.01-4.93 3.55-6.8 6.77-6.8zm.15 12c2.09 0 3.36-1.69 3.36-4.61 0-3.71-1.92-6-4.26-6-2.12 0-3.36 1.69-3.36 4.73 0 3.57 1.89 5.88 4.26 5.88zm19.3-11.75l-4.88 13h-2.89l-4.26-13h2.64l3.51 11.11 1.57-4.61a28.2 28.2 0 0 0 1.64-6.5zm7.1 5.2l2.54-.15v-.22c0-2.22-.55-3.71-2.91-3.71a12 12 0 0 0-4.23 1.07l-.17-1.69a13 13 0 0 1 4.71-.75c1.79 0 3.54.55 4.16 1.27.85 1 .92 2.29.92 4.16v7.77h-2.52v-1.67s-.85.72-1.27 1a4.52 4.52 0 0 1-2.91.95c-2.39 0-4.28-1.17-4.28-3.84.03-3.46 3.45-4.04 5.96-4.19zm-.7 6.3a3.1 3.1 0 0 0 3.21-2.91v-2a12.66 12.66 0 0 0-2.49-.22c-2 0-3.31 1.07-3.31 2.56a2.37 2.37 0 0 0 2.59 2.57zM247.25 78a5.49 5.49 0 0 1 3.66 1.25c1.37 1.25 1.39 4 1.39 5.63h-8.52c.15 3.69 2.39 4.86 4.73 4.86a7.37 7.37 0 0 0 3.59-.82v1.27a8.17 8.17 0 0 1-1.47.75 10.07 10.07 0 0 1-3.44.62c-3.59 0-6-2.27-6-6.9-.02-5.22 3.22-6.66 6.06-6.66zm2.46 5.5c0-2.67-.95-4.31-3.09-4.31-1.92 0-2.81 1.92-2.89 4.31zm11.78-9.04a35.71 35.71 0 0 1 4.33-.27c4.11 0 7.32.77 7.32 4.86 0 3.49-3.46 4.53-4.88 5l6.45 7.17h-3.26l-5.75-7.07v-1.37h1a3.35 3.35 0 0 0 3.71-3.66c0-3-2.27-3.49-4.63-3.49a11.18 11.18 0 0 0-1.64.12V91.2h-2.66zm20.6 3.54c3.36 0 6.23 2.32 6.23 6.8 0 4.86-3.54 6.77-6.8 6.77s-6.2-2.32-6.2-6.77c0-4.93 3.51-6.8 6.77-6.8zm.15 12c2.09 0 3.36-1.69 3.36-4.61 0-3.71-1.92-6-4.26-6-2.12 0-3.36 1.69-3.36 4.73.02 3.57 1.92 5.88 4.26 5.88zm19.3-11.75l-4.88 13h-2.89l-4.26-13h2.64l3.51 11.11 1.57-4.61a28.2 28.2 0 0 0 1.64-6.5zM306.7 74a1.42 1.42 0 0 1-1.54 1.49c-.65 0-1.42-.25-1.42-1.49a1.45 1.45 0 0 1 1.54-1.52c.72.04 1.42.31 1.42 1.52zM304 91.2v-13h2.54v13zm16.4-12.95h1.22v10.21a12.57 12.57 0 0 1-.32 3.29 6.19 6.19 0 0 1-5.83 4.18 9.72 9.72 0 0 1-4.76-1l.15-2.42a10.19 10.19 0 0 0 5 1.62c2.76 0 3.26-1.12 3.26-3.69v-1l-.62.47a4.51 4.51 0 0 1-3 1c-3.69 0-5.48-2.91-5.48-6.1 0-4.93 3.59-6.48 6.6-6.48a6.6 6.6 0 0 1 2.86.8zm-1.3 3.19a4 4 0 0 0-3.41-1.79c-1.74 0-3 1.37-3 4.41 0 1.44.45 5.06 3.76 5.06 1.87 0 2.69-1.25 2.69-3.24zM331.14 78c3.36 0 6.23 2.32 6.23 6.8 0 4.86-3.54 6.77-6.8 6.77s-6.2-2.32-6.2-6.77c-.01-4.93 3.51-6.8 6.77-6.8zm.15 12c2.09 0 3.36-1.69 3.36-4.61 0-3.71-1.92-6-4.26-6-2.12 0-3.36 1.69-3.36 4.73-.03 3.57 1.92 5.88 4.26 5.88z" fill="gray"/></svg>