<svg version="1.1" id="Layer_1" xmlns="http://www.w3.org/2000/svg" x="0" y="0" viewBox="0 0 874 214" xml:space="preserve"><path d="M134.3 45.1c-6.6 0-10.7 4.9-10.7 13.4 0 7.8 3.6 13.8 10.6 13.8 6.7 0 11.1-5.3 11.1-14 0-9.1-4.9-13.2-11-13.2zm176.6 22.7c0 2.9 1.4 5.2 5.3 5.2 4.6 0 9.5-3.3 9.8-10.8-2.1-.3-4.4-.6-6.5-.6-4.6 0-8.6 1.3-8.6 6.2z"/><path d="M0-.6v103h360V-.6H0zm104.7 81.9H85.9V55.9c0-7.8-2.6-10.8-7.7-10.8-6.2 0-8.7 4.4-8.7 10.7v15.7h6v9.8H56.6V55.9c0-7.8-2.6-10.8-7.7-10.8-6.2 0-8.7 4.4-8.7 10.7v15.7h8.6v9.8H21.4v-9.8h6V46h-6v-9.8h18.9V43c2.7-4.8 7.4-7.7 13.7-7.7 6.5 0 12.5 3.1 14.7 9.7 2.5-6 7.6-9.7 14.7-9.7 8.1 0 15.5 4.9 15.5 15.6v20.5h5.8v9.9zm29.1 1.1c-13.9 0-23.5-8.5-23.5-22.9 0-13.2 8-24.1 24.2-24.1s24.1 10.9 24.1 23.5c0 14.3-10.4 23.5-24.8 23.5zm72.6-1h-39.3l-1.3-6.8L190.6 46h-14.1l-2 7-9.3-1 1.6-15.8h39.5l1 6.8-25 28.5h14.6l2.1-7 10.2 1-2.8 15.9zm25.8 0h-13.5V65.1h13.5v16.3zm0-29h-13.5V36.2h13.5v16.2zm8.3 28.9L260 12.5h12.7l-19.5 68.8h-12.7zm26.2 0l19.5-68.8h12.7l-19.5 68.8h-12.7zm69.3 1.1c-6 0-9.3-3.5-9.9-9-2.6 4.6-7.2 9-14.5 9-6.5 0-13.9-3.5-13.9-12.9 0-11.1 10.7-13.7 21-13.7 2.5 0 5.1.1 7.4.4v-1.5c0-4.6-.1-10.1-7.4-10.1-2.7 0-4.8.2-6.9 1.3l-1.5 5.1-10.3-1.2 1.6-10.4c7.9-3.2 11.9-4.1 19.3-4.1 9.7 0 17.9 5 17.9 15.3v19.5c0 2.6 1 3.5 3.1 3.5.6 0 1.2-.1 1.9-.3l.3 6.9c-2.4 1.4-5.3 2.2-8.1 2.2zm116.8 101.1c0 5.2 4 6.9 7.6 6.9 5.7 0 11.6-4.2 12.1-10.9v-3.1c-2.3-.2-4.9-.5-7.6-.5-6.1 0-12.1 1.2-12.1 7.6zm-315.9-25.1c-7.5 0-10.9 5.8-11.7 12.7h22.4c.7-6.1-2.7-12.7-10.7-12.7zm540.7 0c-7.5 0-10.9 5.8-11.7 12.7h22.4c.7-6.1-2.7-12.7-10.7-12.7zm-256.4 0c-7.5 0-10.9 5.8-11.7 12.7H432c.6-6.1-2.8-12.7-10.8-12.7z"/><path d="M874 111.3H0v103.1l700-.1v-5.2h7.3v-50h-7.4v-5.2h13.8v8.6c2.5-5 7-9.4 14.5-9.4 10.5 0 17.7 7.5 17.7 20.1 0 10.9-5.3 22.5-18.7 22.5-5.8 0-10.8-2.4-13.5-6.9v20.3h9.5v5.2H874v-103zM11.8 134.9h7v8.4h-7v-8.4zm14.3 59.9H5.3v-5.2h7.2v-30.5H5.1v-5.2h13.8v35.7h7.2v5.2zm53.7 0H59.1v-5.2h7.1v-19c0-8.8-4-12.1-9.5-12.1-7.4 0-12.1 5.7-12.4 12v19.1h7.2v5.2H30.7v-5.2h7.2v-30.5h-7.4v-5.2h13.8v7.3c2.8-5.1 7.8-8.1 14.4-8.1 8 0 14.1 4.7 14.1 15.5v21h7.1v5.2zm21.5.9c-8.2 0-12.7-5-12.7-13V159H82v-5.2h6.6v-13.2H95v13.2h16v5.2H95v22.9c0 5 1.9 8.2 6.9 8.2 3.2 0 6.3-1.3 7.5-7.9l4.9 1.6c-1.1 7.9-5.6 11.9-13 11.9zm36.3 0c-11.6 0-19.3-7.5-19.3-20.8 0-12.7 7.2-21.9 18.8-21.9 11.2 0 17.3 8.3 17.4 17.9 0 1.6-.2 3.2-.6 4.9h-28.8c.4 9.1 4.9 14.4 13 14.4 6.4 0 10-3.3 11.3-8.4l5.4 1.2c-1.1 7-7.1 12.7-17.2 12.7zm49.9-29.5l-1.6-7c-1-.4-2-.6-3.1-.6-4.8 0-8.4 4.4-8.4 10.8v20.1h9.5v5.2h-23.1v-5.2h7.2V159h-7.4v-5.2H174v7.4c1.6-4.6 5.4-8.1 10.1-8.1 2.9 0 5 .5 7 2.1l1.6 10.3-5.2.7zm61 28.6h-20.7v-5.2h7.1v-19c0-8.8-4-12.1-9.5-12.1-7.4 0-12.1 5.7-12.4 12v19.1h7.2v5.2h-20.8v-5.2h7.2v-30.5h-7.4v-5.2H213v7.3c2.8-5.1 7.8-8.1 14.4-8.1 8 0 14.1 4.7 14.1 15.5v21h7.1v5.2zm23.7.9c-11.6 0-19.3-7.5-19.3-20.8 0-12.7 7.2-21.9 18.8-21.9 11.2 0 17.3 8.3 17.4 17.9 0 1.6-.2 3.2-.6 4.9h-28.8c.4 9.1 4.9 14.4 13 14.4 6.4 0 10-3.3 11.3-8.4l5.4 1.2c-1.1 7-7.1 12.7-17.2 12.7zm41.1 0c-8.2 0-12.7-5-12.7-13V159H294v-5.2h6.6v-13.2h6.4v13.2h16v5.2h-16v22.9c0 5 1.9 8.2 6.9 8.2 3.2 0 6.3-1.3 7.5-7.9l4.9 1.6c-1.1 7.9-5.6 11.9-13 11.9zm85-.9h-20.8v-5.2h7.2v-19c0-8.8-4-12.1-9.7-12.1-7.2 0-12 5.8-12.2 11.8v19.3h7.1v5.2h-20.7v-5.2h7.1v-52.8h-7.1v-5.2h13.6v29.7c2.8-5.1 7.7-8.2 14.4-8.2 8 0 14.1 4.7 14.1 15.5v21h7.1v5.2zm23.7.9c-11.6 0-19.3-7.5-19.3-20.8 0-12.7 7.2-21.9 18.8-21.9 11.2 0 17.3 8.3 17.4 17.9 0 1.6-.2 3.2-.6 4.9h-28.8c.4 9.1 4.9 14.4 13 14.4 6.4 0 10-3.3 11.3-8.4l5.4 1.2c-1.1 7-7.1 12.7-17.2 12.7zm57.9 0c-4.8 0-7.4-3.2-7.5-8.3v-.2c-2.6 4.4-7.4 8.5-14 8.5-5.4 0-12.4-2.8-12.4-11.5 0-10.3 9.9-12.6 19.1-12.6 2.5 0 5.1.2 7.3.4v-3.7c0-5.9-1.9-9.9-9.3-9.9-2.8 0-5.4.5-7.9 1.7l-1.6 7.1-5.3-.6 1.5-9.5c4.2-2.9 9.1-4 14.4-4 9.5 0 14.6 4.5 14.6 13.7v19.5c0 3 1.1 4.4 3.5 4.4.8 0 1.9-.2 2.8-.6l.1 4.2c-1.4.9-3.4 1.4-5.3 1.4zm29.5-.9h-20.8v-5.2h7.2v-52.8h-7.3v-5.2h13.7v58h7.2v5.2zm22.6.9c-8.2 0-12.7-5-12.7-13V159h-6.6v-5.2h6.6v-13.2h6.4v13.2h16v5.2h-16v22.9c0 5 1.9 8.2 6.9 8.2 3.2 0 6.3-1.3 7.5-7.9l4.9 1.6c-1.1 7.9-5.7 11.9-13 11.9zm64.1-.9h-20.8v-5.2h7.2v-19c0-8.8-4-12.1-9.7-12.1-7.2 0-12 5.8-12.2 11.8v19.3h7.1v5.2H547v-5.2h7.1v-52.8H547v-5.2h13.6v29.7c2.8-5.1 7.7-8.2 14.4-8.2 8 0 14.1 4.7 14.1 15.5v21h7.1v5.2zm50.2-28.6l-1.6-7c-1-.4-2-.6-3.1-.6-4.8 0-8.4 4.4-8.4 10.8v20.1h9.5v5.2h-23.1v-5.2h7.2V159h-7.4v-5.2h13.4v7.4c1.6-4.6 5.4-8.1 10.1-8.1 2.9 0 5 .5 7 2.1l1.6 10.3-5.2.7zm32.1 29.5c-11.6 0-19.3-7.5-19.3-20.8 0-12.7 7.2-21.9 18.8-21.9 11.2 0 17.3 8.3 17.4 17.9 0 1.6-.2 3.2-.6 4.9h-28.8c.4 9.1 4.9 14.4 13 14.4 6.4 0 10-3.3 11.3-8.4l5.4 1.2c-1.1 7-7.1 12.7-17.2 12.7zm94.3 0c-12.4 0-19.9-8.7-19.9-21.1 0-12 7-21.7 20.2-21.7 13.3 0 20.1 9.8 20.1 21.3.1 12.5-7.8 21.5-20.4 21.5zm53.3-29.5l-1.6-7c-1-.4-2-.6-3.1-.6-4.8 0-8.4 4.4-8.4 10.8v20.1h9.5v5.2h-23.1v-5.2h7.2V159h-7.4v-5.2h13.4v7.4c1.6-4.6 5.4-8.1 10.1-8.1 2.9 0 5 .5 7 2.1l1.6 10.3-5.2.7zm29.9 29.5c-8.2 0-12.7-5-12.7-13V159h-6.6v-5.2h6.6v-13.2h6.4v13.2h16v5.2h-16v22.9c0 5 1.9 8.2 6.9 8.2 3.2 0 6.3-1.3 7.5-7.9l4.9 1.6c-1.1 7.9-5.6 11.9-13 11.9z"/><path d="M271.5 158.4c-7.5 0-10.9 5.8-11.7 12.7h22.4c.7-6.1-2.7-12.7-10.7-12.7zm501.3.1c-8.6 0-13.3 6.7-13.3 15.8 0 8.9 4.6 15.9 13.3 15.9 8.7 0 13.5-6.8 13.5-16 .1-9.4-4.9-15.7-13.5-15.7zm-46.9 31.7c9.2 0 13.2-7.7 13.2-16.5 0-9.8-5.3-15.2-12.5-15.2-7.4 0-12.6 7.2-12.9 13.4v6.1c0 7 5.4 12.2 12.2 12.2zM700 214.3h23.2v.1H700z"/></svg>