<svg xmlns="http://www.w3.org/2000/svg" xmlns:xlink="http://www.w3.org/1999/xlink" width="126" height="42" viewBox="0 0 126 42" version="1.1">
    <!-- Generator: Sketch 49.2 (51160) - http://www.bohemiancoding.com/sketch -->
    <title>arslogo</title>
    <desc>Created with Sketch.</desc>
    <defs/>
    <g id="Ars-Technica" stroke="none" stroke-width="1" fill="none" fill-rule="evenodd">
        <g id="eCap_ars_unveil_v1" transform="translate(-657.000000, -243.000000)" fill-rule="nonzero">
            <g id="email-capture" transform="translate(420.000000, 145.000000)">
                <g id="content" transform="translate(140.000000, 98.000000)">
                    <g id="arslogo" transform="translate(97.000000, 0.000000)">
                        <ellipse id="Oval" fill="#FF4E00" cx="20.866242" cy="21" rx="20.866242" ry="21"/>
                        <g id="Group" transform="translate(4.815287, 14.538462)" fill="#FFFFFF">
                            <path d="M8.56050955,13.20491 L8.30022379,11.4812602 C7.14558925,12.7630394 5.5041058,13.4858258 3.78860389,13.4678396 C1.47495266,13.4678396 0.0289206404,12.0655483 0.0289206404,9.87446809 C0.0289206404,6.6608838 2.74746084,5.37545008 8.09777931,4.82037643 L8.09777931,4.26530278 C8.09777931,2.62929624 7.14339818,2.07422259 5.66844552,2.07422259 C4.19349286,2.07422259 2.63177828,2.57086743 1.24358754,3.18436989 L0.925460492,1.1101473 C2.45825443,0.496644845 3.90428645,0.0292144026 5.87089,0.0292144026 C8.96539852,0.0292144026 10.4692718,1.28543372 10.4692718,4.17765957 L10.4692718,13.20491 L8.53158891,13.20491 L8.56050955,13.20491 Z M8.09777931,6.6608838 C3.38371493,7.12831424 2.40041315,8.41374795 2.40041315,9.75761047 C2.40041315,11.101473 3.09450852,11.4812602 4.30917542,11.4812602 C5.52384231,11.4812602 7.02771561,10.7801146 8.09777931,9.66996727 L8.09777931,6.6608838 Z M16.0220348,5.5799509 L16.0220348,13.20491 L13.6505423,13.20491 L13.6505423,0.321358429 L15.5593045,0.321358429 L15.9641935,2.95065466 C16.8607333,1.48993453 18.335686,0.175286416 20.4468928,0.0584288052 L20.8228611,2.36636661 C18.6827337,2.45400982 16.889654,3.88551555 16.0220348,5.5799509 Z M26.8094336,13.4678396 C25.1840998,13.429591 23.5899186,13.0094934 22.1532105,12.2408347 L22.5002582,9.96211129 C23.8197753,10.9094012 25.3932341,11.4290262 27.0118781,11.4520458 C28.631434,11.4520458 29.6147358,10.8385434 29.6147358,9.75761047 C29.6147358,8.67667758 28.8917197,8.12160393 26.5780685,7.56653028 C23.5703219,6.80695581 22.3845757,5.90130933 22.3845757,3.59337152 C22.3845757,1.28543372 24.0908934,0.0292144026 26.8961956,0.0292144026 C28.3393005,0.0221000291 29.7678543,0.320665067 31.0896884,0.905646481 L30.7137201,3.18436989 C29.5341423,2.49281561 28.201713,2.11112445 26.8383543,2.07422259 C25.3923223,2.07422259 24.6403856,2.62929624 24.6403856,3.56415712 C24.6403856,4.499018 25.2766397,4.90801964 27.3010845,5.43387889 C30.4534343,6.25188216 31.8705457,7.15752864 31.8705457,9.61153846 C31.8705457,12.0655483 30.1063866,13.4678396 26.8094336,13.4678396 Z" id="Shape"/>
                        </g>
                        <g id="Group" transform="translate(43.337580, 14.538462)" fill="#000000">
                            <path d="M19.7407109,9.73538462 C18.4689813,10.7979487 17.3128636,11.1712821 16.041134,11.1712821 C13.8156073,11.1712821 12.3704601,9.64923077 12.1392366,7.15076923 L19.3360697,7.15076923 L19.5961962,5.57128205 L12.1392366,5.57128205 C12.3704601,3.07282051 13.7867044,1.52205128 15.8677164,1.52205128 C17.2839606,1.52205128 18.4111754,2.01025641 19.5961962,2.98666667 L19.8852256,1.29230769 C18.731776,0.471369436 17.3442325,0.0386505854 15.9255222,0.0574358974 C12.8329072,0.0574358974 10.376157,2.2974359 10.376157,6.34666667 C10.376157,10.3958974 12.7751013,12.6358974 15.8388134,12.6358974 C17.3365886,12.672246 18.7995649,12.1843201 19.9719344,11.2574359 L19.7407109,9.73538462 Z M5.63607412,1.80923077 L5.63607412,12.4348718 L3.95970335,12.4348718 L3.95970335,1.80923077 L0.0867088326,1.80923077 L0.0867088326,0.287179487 L9.39345686,0.287179487 L9.65358336,1.80923077 L5.63607412,1.80923077 Z M27.2265734,12.6358974 C23.7871231,12.6358974 21.5904993,10.1087179 21.5904993,6.37538462 C21.5904993,2.64205128 23.844929,0.0574358974 27.2554764,0.0574358974 C28.4892181,0.021665711 29.7028926,0.37338839 30.7238297,1.0625641 L30.4637032,2.75692308 C29.5495299,2.01233312 28.4085087,1.59731133 27.2265734,1.57948718 C24.7409202,1.57948718 23.295773,3.44615385 23.295773,6.34666667 C23.295773,9.24717949 24.7698232,11.1138462 27.2265734,11.1138462 C28.4736457,11.0890887 29.6795858,10.666187 30.6660238,9.90769231 L30.9261503,11.4584615 C29.844177,12.2196424 28.5522902,12.6308013 27.2265734,12.6358974 Z M40.9554719,12.4061538 L40.9554719,6.80615385 L34.7702419,6.80615385 L34.7702419,12.4061538 L33.0938711,12.4061538 L33.0938711,0.287179487 L34.7702419,0.287179487 L34.7702419,5.31282051 L40.9554719,5.31282051 L40.9554719,0.287179487 L42.6318427,0.287179487 L42.6318427,12.4061538 L40.9554719,12.4061538 Z M53.3837379,12.4061538 L46.6782549,2.95794872 L46.6782549,12.4061538 L45.1463988,12.4061538 L45.1463988,0.287179487 L46.620449,0.287179487 L53.0947085,9.36205128 L53.0947085,0.287179487 L54.6265645,0.287179487 L54.6265645,12.4061538 L53.3837379,12.4061538 Z M57.2567324,12.4061538 L57.2567324,0.287179487 L58.9331032,0.287179487 L58.9331032,12.4061538 L57.2567324,12.4061538 Z M66.7079952,12.6358974 C63.2685448,12.6358974 61.0719211,10.1087179 61.0719211,6.37538462 C61.0719211,2.64205128 63.3263507,0.0574358974 66.7368981,0.0574358974 C67.9706398,0.021665711 69.1843144,0.37338839 70.2052514,1.0625641 L69.9451249,2.75692308 C69.0309517,2.01233312 67.8899305,1.59731133 66.7079952,1.57948718 C64.222342,1.57948718 62.7771948,3.44615385 62.7771948,6.34666667 C62.7771948,9.24717949 64.2512449,11.1138462 66.7079952,11.1138462 C67.9550674,11.0890887 69.1610076,10.666187 70.1474455,9.90769231 L70.407572,11.4584615 C69.3255987,12.2196424 68.033712,12.6308013 66.7079952,12.6358974 Z M76.2459668,0.22974359 L77.9223375,0.22974359 L82.6335174,12.1764103 L81.0149526,12.5210256 L79.5698054,8.75897436 L74.5406931,8.75897436 L73.1533517,12.4061538 L71.476981,12.4061538 L76.2459668,0.22974359 Z M75.089849,7.32307692 L78.9917465,7.32307692 L77.0263463,2.1825641 L75.089849,7.32307692 Z" id="Shape"/>
                        </g>
                    </g>
                </g>
            </g>
        </g>
    </g>
</svg>